<svg xmlns="http://www.w3.org/2000/svg" viewBox="0 0 128 128" width="128" height="128">
  <defs>
    <linearGradient id="bg" x1="0%" y1="0%" x2="100%" y2="100%">
      <stop offset="0%" style="stop-color:#6366f1"/>
      <stop offset="100%" style="stop-color:#8b5cf6"/>
    </linearGradient>
    <linearGradient id="shine" x1="0%" y1="0%" x2="100%" y2="100%">
      <stop offset="0%" style="stop-color:rgba(255,255,255,0.3)"/>
      <stop offset="50%" style="stop-color:rgba(255,255,255,0)"/>
    </linearGradient>
  </defs>
  
  <!-- Background -->
  <rect width="128" height="128" rx="24" fill="url(#bg)"/>
  <rect width="128" height="128" rx="24" fill="url(#shine)"/>
  
  <!-- Document shape -->
  <rect x="30" y="20" width="68" height="88" rx="6" fill="white" opacity="0.95"/>
  
  <!-- Added line (green) -->
  <rect x="38" y="36" width="52" height="8" rx="2" fill="#22c55e"/>
  
  <!-- Normal line -->
  <rect x="38" y="50" width="40" height="6" rx="2" fill="#cbd5e1"/>
  
  <!-- Added line (green) -->
  <rect x="38" y="62" width="48" height="8" rx="2" fill="#22c55e"/>
  
  <!-- Removed line indicator (red) -->
  <rect x="30" y="76" width="4" height="8" rx="1" fill="#ef4444"/>
  <rect x="38" y="78" width="35" height="4" rx="2" fill="#cbd5e1" opacity="0.5"/>
  
  <!-- Normal line -->
  <rect x="38" y="90" width="44" height="6" rx="2" fill="#cbd5e1"/>
  
  <!-- Check mark badge -->
  <circle cx="98" cy="98" r="18" fill="#22c55e"/>
  <path d="M89 98 L95 104 L107 92" stroke="white" stroke-width="4" stroke-linecap="round" stroke-linejoin="round" fill="none"/>
</svg>
